<svg width="44" height="44" viewBox="0 0 44 44" fill="none" xmlns="http://www.w3.org/2000/svg">
<path d="M18.317 25.6133C18.317 27.498 16.942 28.0937 15.2527 28.0937H10.8232V22.9277H15.3411C17.1679 22.9375 18.317 23.6895 18.317 25.6133ZM17.5607 17.5762C17.5607 15.8477 16.2152 15.4375 14.7223 15.4375H10.833V19.8125H15.0268C16.5098 19.8125 17.5607 19.168 17.5607 17.5762ZM30.5545 19.8418C28.7571 19.8418 27.5589 20.9551 27.4411 22.7422H33.55C33.383 20.9355 32.4402 19.8418 30.5545 19.8418ZM44 4.8125V39.1875C44 41.7754 41.8884 43.875 39.2857 43.875H4.71429C2.11161 43.875 0 41.7754 0 39.1875V4.8125C0 2.22461 2.11161 0.125 4.71429 0.125H39.2857C41.8884 0.125 44 2.22461 44 4.8125ZM26.6848 15.0664H34.3259V13.2207H26.6848V15.0664ZM22.4616 25.8379C22.4616 23.4844 21.342 21.4531 19.0241 20.7988C20.7134 19.998 21.5973 19.0703 21.5973 17.1855C21.5973 13.4551 18.7982 12.5469 15.567 12.5469H6.67857V31.2969H15.8223C19.25 31.2773 22.4616 29.6465 22.4616 25.8379ZM37.3214 24.3926C37.3214 20.3789 34.9545 17.0293 30.6821 17.0293C26.5179 17.0293 23.6991 20.1348 23.6991 24.2168C23.6991 28.4453 26.3804 31.3457 30.6821 31.3457C33.9429 31.3457 36.0545 29.8906 37.0759 26.7754H33.7661C33.4027 27.9375 31.9393 28.543 30.8 28.543C28.6 28.543 27.4509 27.2637 27.4509 25.0957H37.292C37.3018 24.8711 37.3214 24.627 37.3214 24.3926Z" fill="#A555EC"/>
</svg>
