<svg width="40" height="39" viewBox="0 0 40 39" fill="none" xmlns="http://www.w3.org/2000/svg">
<path d="M16.6518 22.2634C16.6518 23.9004 15.4018 24.4179 13.8661 24.4179H9.83929V19.9308H13.9464C15.6071 19.9393 16.6518 20.5924 16.6518 22.2634ZM15.9643 15.2826C15.9643 13.7812 14.7411 13.425 13.3839 13.425H9.84821V17.225H13.6607C15.0089 17.225 15.9643 16.6652 15.9643 15.2826ZM27.7768 17.2504C26.1429 17.2504 25.0536 18.2174 24.9464 19.7696H30.5C30.3482 18.2004 29.4911 17.2504 27.7768 17.2504ZM40 4.19643V34.0536C40 36.3013 38.0804 38.125 35.7143 38.125H4.28571C1.91964 38.125 0 36.3013 0 34.0536V4.19643C0 1.94866 1.91964 0.125 4.28571 0.125H35.7143C38.0804 0.125 40 1.94866 40 4.19643ZM24.2589 13.1027H31.2054V11.4996H24.2589V13.1027ZM20.4196 22.4585C20.4196 20.4143 19.4018 18.65 17.2946 18.0817C18.8304 17.3862 19.6339 16.5804 19.6339 14.9433C19.6339 11.7031 17.0893 10.9143 14.1518 10.9143H6.07143V27.2H14.3839C17.5 27.183 20.4196 25.7665 20.4196 22.4585ZM33.9286 21.2031C33.9286 17.717 31.7768 14.8076 27.8929 14.8076C24.1071 14.8076 21.5446 17.5049 21.5446 21.0504C21.5446 24.7232 23.9821 27.2424 27.8929 27.2424C30.8571 27.2424 32.7768 25.9786 33.7054 23.2728H30.6964C30.3661 24.2821 29.0357 24.808 28 24.808C26 24.808 24.9554 23.6969 24.9554 21.8138H33.9018C33.9107 21.6188 33.9286 21.4067 33.9286 21.2031Z" fill="#A555EC"/>
</svg>
