<svg width="19" height="19" viewBox="0 0 19 19" fill="none" xmlns="http://www.w3.org/2000/svg">
<path d="M4 19H1C0.734784 19 0.48043 18.8946 0.292893 18.7071C0.105357 18.5196 0 18.2652 0 18V10C0 9.73478 0.105357 9.48043 0.292893 9.29289C0.48043 9.10536 0.734784 9 1 9H4C4.26522 9 4.51957 9.10536 4.70711 9.29289C4.89464 9.48043 5 9.73478 5 10V18C5 18.2652 4.89464 18.5196 4.70711 18.7071C4.51957 18.8946 4.26522 19 4 19ZM11 19H8C7.73478 19 7.48043 18.8946 7.29289 18.7071C7.10536 18.5196 7 18.2652 7 18V1C7 0.734784 7.10536 0.48043 7.29289 0.292893C7.48043 0.105357 7.73478 0 8 0H11C11.2652 0 11.5196 0.105357 11.7071 0.292893C11.8946 0.48043 12 0.734784 12 1V18C12 18.2652 11.8946 18.5196 11.7071 18.7071C11.5196 18.8946 11.2652 19 11 19ZM18 19H15C14.7348 19 14.4804 18.8946 14.2929 18.7071C14.1054 18.5196 14 18.2652 14 18V7C14 6.73478 14.1054 6.48043 14.2929 6.29289C14.4804 6.10536 14.7348 6 15 6H18C18.2652 6 18.5196 6.10536 18.7071 6.29289C18.8946 6.48043 19 6.73478 19 7V18C19 18.2652 18.8946 18.5196 18.7071 18.7071C18.5196 18.8946 18.2652 19 18 19Z" fill="black"/>
</svg>
