<svg width="84" height="67" viewBox="0 0 84 67" fill="none" xmlns="http://www.w3.org/2000/svg">
<g clip-path="url(#clip0_225_313)">
<path d="M17.9926 0.310303C13.2961 0.310303 9.82073 4.4704 9.97635 8.98191C10.1259 13.3161 9.93165 18.93 8.53527 23.5079C7.13471 28.0992 4.76571 31.0075 0.896484 31.381V35.5968C4.76571 35.9703 7.13471 38.8786 8.53527 43.4702C9.93165 48.0481 10.1259 53.6614 9.97635 57.9959C9.82073 62.5067 13.2961 66.6675 17.9932 66.6675H66.1168C70.8137 66.6675 74.2881 62.5074 74.1324 57.9959C73.9832 53.6617 74.1771 48.0481 75.5735 43.4702C76.975 38.879 79.3376 35.97 83.2068 35.5968V31.381C79.3376 31.0075 76.975 28.0992 75.5738 23.5079C74.1771 18.9307 73.9832 13.3164 74.1324 8.98191C74.2881 4.47105 70.8137 0.310303 66.1168 0.310303H17.992H17.9926ZM56.7003 41.1573C56.7003 47.3697 52.1218 51.137 44.5235 51.137H31.5886C31.2187 51.1369 30.8639 50.9881 30.6023 50.7234C30.3408 50.4586 30.1938 50.0995 30.1938 49.7252V17.2526C30.1938 17.0672 30.2298 16.8836 30.2999 16.7123C30.37 16.5409 30.4728 16.3852 30.6023 16.2541C30.7319 16.123 30.8857 16.0189 31.055 15.948C31.2242 15.877 31.4057 15.8405 31.5889 15.8405H44.4496C50.7852 15.8405 54.9432 19.314 54.9432 24.6465C54.9432 28.3894 52.1459 31.7403 48.5825 32.3269V32.5225C53.434 33.061 56.7003 36.461 56.7003 41.1573ZM43.1127 20.3162H35.7379V30.8588H41.9497C46.7514 30.8588 49.3995 28.9019 49.3995 25.404C49.3995 22.1263 47.1221 20.3162 43.1127 20.3162ZM35.7379 35.042V46.66H43.3844C48.3834 46.66 51.0322 44.6299 51.0322 40.8144C51.0322 36.9982 48.3098 35.0413 43.0629 35.0413H35.7379V35.042Z" fill="#7E13F8"/>
</g>
<defs>
<clipPath id="clip0_225_313">
<rect width="82.3103" height="66.3793" fill="white" transform="translate(0.896484 0.310303)"/>
</clipPath>
</defs>
</svg>
