<svg width="24" height="25" viewBox="0 0 24 25" fill="none" xmlns="http://www.w3.org/2000/svg">
<path d="M18.9908 2.21204H9.00979C7.89879 2.21204 6.99979 3.12012 6.99979 4.24234V9.93628L2.29779 14.6252C2.1569 14.7659 2.06059 14.9458 2.02107 15.1419C1.98155 15.338 2.0006 15.5416 2.07582 15.7268C2.15103 15.9119 2.27901 16.0704 2.44352 16.1819C2.60802 16.2935 2.80164 16.3532 2.99979 16.3535V21.404C2.99979 21.6719 3.10514 21.9288 3.29268 22.1182C3.48022 22.3076 3.73457 22.4141 3.99979 22.4141H19.9998C20.265 22.4141 20.5194 22.3076 20.7069 22.1182C20.8944 21.9288 20.9998 21.6719 20.9998 21.404V4.24133C20.9998 3.12012 20.1018 2.21204 18.9908 2.21204ZM10.9218 15.4555V20.3939H4.99979V14.7696L7.98679 11.7908L10.9218 14.8242V15.4555ZM12.9998 9.28274H10.9998V7.26254H12.9998V9.28274ZM16.9998 17.3636H14.9998V15.3434H16.9998V17.3636ZM16.9998 13.3231H14.9998V11.3029H16.9998V13.3231ZM16.9998 9.28274H14.9998V7.26254H16.9998V9.28274Z" fill="black"/>
<path d="M7 15.3434H9V17.3636H7V15.3434Z" fill="black"/>
</svg>
