<svg width="74" height="74" viewBox="0 0 74 74" fill="none" xmlns="http://www.w3.org/2000/svg">
<path d="M13.9498 62.3946L8.82495 4.89124H65.1578L60.026 62.3855L36.9571 68.7813L13.9498 62.3946Z" fill="#1572B6"/>
<path d="M36.9912 63.8937L55.6334 58.7255L60.019 9.59399H36.9912V63.8937Z" fill="#33A9DC"/>
<path d="M36.9912 30.4267H46.3237L46.9672 23.2049H36.9912V16.1519H54.6751L54.5062 18.0435L52.7743 37.4797H36.9912V30.4267Z" fill="white"/>
<path d="M37.0347 48.7427L37.0027 48.7518L29.1488 46.6297L28.6468 41.0051H21.5664L22.5544 52.0786L37.0004 56.09L37.0347 56.0809V48.7427Z" fill="#EBEBEB"/>
<path d="M45.7237 37.1808L44.8748 46.6251L37.0095 48.7472V56.0854L51.4669 52.0786L51.5742 50.8875L52.7995 37.1808H45.7237Z" fill="white"/>
<path d="M37.0163 16.1519V23.2049H19.9804L19.839 21.619L19.5172 18.0435L19.3484 16.1519H37.0163ZM36.9912 30.4267V37.4797H29.2354L29.0939 35.8939L28.7745 32.3183L28.6056 30.4267H36.9912Z" fill="#EBEBEB"/>
</svg>
