<svg width="32" height="26" viewBox="0 0 32 26" fill="none" xmlns="http://www.w3.org/2000/svg">
<path d="M20.4337 6.66671L22.3337 8.56671L11.567 19.3334L9.66699 17.4334L20.4337 6.66671ZM3.33366 0.333374H28.667C30.4245 0.333374 31.8337 1.74254 31.8337 3.50004V9.83337C30.9938 9.83337 30.1884 10.167 29.5945 10.7609C29.0006 11.3547 28.667 12.1602 28.667 13C28.667 13.8399 29.0006 14.6453 29.5945 15.2392C30.1884 15.8331 30.9938 16.1667 31.8337 16.1667V22.5C31.8337 24.2575 30.4245 25.6667 28.667 25.6667H3.33366C2.49381 25.6667 1.68835 25.3331 1.09449 24.7392C0.500622 24.1453 0.166992 23.3399 0.166992 22.5V16.1667C1.92449 16.1667 3.33366 14.7575 3.33366 13C3.33366 12.1602 3.00003 11.3547 2.40616 10.7609C1.8123 10.167 1.00684 9.83337 0.166992 9.83337V3.50004C0.166992 2.66019 0.500622 1.85473 1.09449 1.26087C1.68835 0.667004 2.49381 0.333374 3.33366 0.333374ZM3.33366 3.50004V7.52171C4.29582 8.07651 5.09489 8.87492 5.65048 9.83662C6.20607 10.7983 6.49858 11.8894 6.49858 13C6.49858 14.1107 6.20607 15.2018 5.65048 16.1635C5.09489 17.1252 4.29582 17.9236 3.33366 18.4784V22.5H28.667V18.4784C27.7048 17.9236 26.9058 17.1252 26.3502 16.1635C25.7946 15.2018 25.5021 14.1107 25.5021 13C25.5021 11.8894 25.7946 10.7983 26.3502 9.83662C26.9058 8.87492 27.7048 8.07651 28.667 7.52171V3.50004H3.33366ZM12.042 6.66671C13.3562 6.66671 14.417 7.72754 14.417 9.04171C14.417 10.3559 13.3562 11.4167 12.042 11.4167C10.7278 11.4167 9.66699 10.3559 9.66699 9.04171C9.66699 7.72754 10.7278 6.66671 12.042 6.66671ZM19.9587 14.5834C21.2728 14.5834 22.3337 15.6442 22.3337 16.9584C22.3337 18.2725 21.2728 19.3334 19.9587 19.3334C18.6445 19.3334 17.5837 18.2725 17.5837 16.9584C17.5837 15.6442 18.6445 14.5834 19.9587 14.5834Z" fill="#2A2626"/>
</svg>
