<svg width="48" height="73" viewBox="0 0 48 73" fill="none" xmlns="http://www.w3.org/2000/svg">
<g clip-path="url(#clip0_225_292)">
<path d="M11.9483 72.3448C18.5437 72.3448 23.8966 66.992 23.8966 60.3965V48.4482H11.9483C5.35283 48.4482 0 53.8011 0 60.3965C0 66.992 5.35283 72.3448 11.9483 72.3448Z" fill="#0ACF83"/>
<path d="M0 36.5C0 29.9046 5.35283 24.5518 11.9483 24.5518H23.8966V48.4483H11.9483C5.35283 48.4483 0 43.0955 0 36.5Z" fill="#A259FF"/>
<path d="M0 12.6034C0 6.00798 5.35283 0.655151 11.9483 0.655151H23.8966V24.5517H11.9483C5.35283 24.5517 0 19.1989 0 12.6034Z" fill="#F24E1E"/>
<path d="M23.8965 0.655151H35.8448C42.4402 0.655151 47.793 6.00798 47.793 12.6034C47.793 19.1989 42.4402 24.5517 35.8448 24.5517H23.8965V0.655151Z" fill="#FF7262"/>
<path d="M47.793 36.5C47.793 43.0955 42.4402 48.4483 35.8448 48.4483C29.2493 48.4483 23.8965 43.0955 23.8965 36.5C23.8965 29.9046 29.2493 24.5518 35.8448 24.5518C42.4402 24.5518 47.793 29.9046 47.793 36.5Z" fill="#1ABCFE"/>
</g>
<defs>
<clipPath id="clip0_225_292">
<rect width="47.7931" height="71.6897" fill="white" transform="translate(0 0.655151)"/>
</clipPath>
</defs>
</svg>
