<svg width="76" height="75" viewBox="0 0 76 75" fill="none" xmlns="http://www.w3.org/2000/svg">
<path d="M14.0661 64.9171L8.70972 4.97424H67.566L62.2025 64.9076L38.1021 71.5748L14.0661 64.9171Z" fill="#E44F26"/>
<path d="M38.1379 65.3794L58.1999 60.0722L62.9195 9.62073H38.1379V65.3794Z" fill="#F1662A"/>
<path d="M38.138 31.7585H28.3292L27.6529 24.4766H38.138V17.365H19.5518L19.7292 19.2746L21.5495 38.8701H38.138V31.7585ZM38.138 50.2267L38.1044 50.2359L29.8497 48.0985L29.3221 42.4271H21.8804L22.9189 53.5904L38.1044 57.6351L38.138 57.6259V50.2267Z" fill="#EBEBEB"/>
<path d="M38.1379 31.7593V38.8714H47.2738L46.4145 48.0956L38.1379 50.2355V57.6351L53.3492 53.5924L53.4596 52.3914L55.2023 33.6691L55.3847 31.7593H38.1379ZM38.1379 17.365V24.477H56.0592L56.2081 22.8802L56.5465 19.2747L56.7241 17.365H38.1379Z" fill="white"/>
</svg>
