<svg width="266" height="266" viewBox="0 0 266 266" fill="none" xmlns="http://www.w3.org/2000/svg">
<circle cx="133" cy="133" r="133" fill="#A555EC"/>
<rect x="94.6233" y="163" width="86.1176" height="48" rx="6" fill="white"/>
<path d="M133.133 175.13C134.473 175.61 135.143 176.25 135.143 177.05C135.143 177.31 135.023 177.8 134.783 178.52L129.023 195.17C128.983 195.31 128.913 195.48 128.813 195.68C128.713 195.88 128.443 196.15 128.003 196.49C127.583 196.81 127.073 196.97 126.473 196.97C125.893 196.97 125.383 196.81 124.943 196.49C124.523 196.15 124.243 195.82 124.103 195.5L120.593 185.15C118.373 191.71 117.243 195.05 117.203 195.17C117.163 195.29 117.073 195.46 116.933 195.68C116.793 195.9 116.633 196.1 116.453 196.28C115.993 196.74 115.443 196.97 114.803 196.97C114.163 196.97 113.633 196.82 113.213 196.52C112.813 196.22 112.543 195.92 112.403 195.62L112.193 195.17L106.403 178.52C106.183 177.86 106.073 177.37 106.073 177.05C106.073 176.25 106.743 175.62 108.083 175.16C108.663 174.96 109.183 174.86 109.643 174.86C110.123 174.86 110.483 175.02 110.723 175.34C110.983 175.66 111.213 176.15 111.413 176.81L114.713 186.83L117.983 176.96C118.263 176.12 118.773 175.54 119.513 175.22C119.833 175.08 120.243 175.01 120.743 175.01C121.263 175.01 121.743 175.18 122.183 175.52C122.623 175.84 122.903 176.16 123.023 176.48L126.473 186.89L129.773 176.81C129.933 176.35 130.063 176.01 130.163 175.79C130.263 175.57 130.443 175.36 130.703 175.16C130.983 174.94 131.323 174.83 131.723 174.83C132.123 174.83 132.593 174.93 133.133 175.13ZM149.925 187.22C149.925 188.44 149.615 189.35 148.995 189.95C148.395 190.53 147.725 190.82 146.985 190.82H139.875C139.875 191.38 140.205 191.85 140.865 192.23C141.525 192.61 142.185 192.8 142.845 192.8C144.005 192.8 144.915 192.68 145.575 192.44L145.905 192.32C146.385 192.1 146.785 191.99 147.105 191.99C147.745 191.99 148.295 192.44 148.755 193.34C149.015 193.88 149.145 194.34 149.145 194.72C149.145 196.5 147.015 197.39 142.755 197.39C141.275 197.39 139.955 197.14 138.795 196.64C137.655 196.12 136.765 195.44 136.125 194.6C134.865 192.98 134.235 191.17 134.235 189.17C134.235 186.65 135.045 184.64 136.665 183.14C138.305 181.62 140.345 180.86 142.785 180.86C145.565 180.86 147.605 181.84 148.905 183.8C149.585 184.84 149.925 185.98 149.925 187.22ZM143.595 188.09C144.355 188.09 144.735 187.77 144.735 187.13C144.735 186.67 144.555 186.3 144.195 186.02C143.855 185.74 143.355 185.6 142.695 185.6C142.055 185.6 141.415 185.87 140.775 186.41C140.135 186.93 139.815 187.49 139.815 188.09H143.595ZM160.552 181.22C162.332 181.22 163.962 182.01 165.442 183.59C166.942 185.17 167.692 187.01 167.692 189.11C167.692 191.19 166.952 193.02 165.472 194.6C163.992 196.16 162.402 196.94 160.702 196.94C159.002 196.94 157.792 196.46 157.072 195.5C156.912 196.48 156.052 196.97 154.492 196.97C153.232 196.97 152.462 196.7 152.182 196.16C152.042 195.86 151.952 195.6 151.912 195.38C151.892 195.14 151.882 194.79 151.882 194.33V176.42C151.882 175.96 151.892 175.62 151.912 175.4C151.952 175.16 152.042 174.9 152.182 174.62C152.462 174.08 153.242 173.81 154.522 173.81C155.782 173.81 156.542 174.08 156.802 174.62C156.962 174.92 157.052 175.19 157.072 175.43C157.112 175.65 157.132 175.99 157.132 176.45V182.69C157.932 181.71 159.072 181.22 160.552 181.22ZM157.912 190.91C158.412 191.45 159.032 191.72 159.772 191.72C160.512 191.72 161.142 191.45 161.662 190.91C162.182 190.37 162.442 189.77 162.442 189.11C162.442 188.45 162.202 187.85 161.722 187.31C161.242 186.75 160.602 186.47 159.802 186.47C159.002 186.47 158.362 186.75 157.882 187.31C157.422 187.87 157.192 188.48 157.192 189.14C157.192 189.78 157.432 190.37 157.912 190.91Z" fill="#A555EC"/>
<path d="M84.2833 133.33C84.2833 135.16 83.8183 136.525 82.8883 137.425C81.9883 138.295 80.9833 138.73 79.8733 138.73H69.2083C69.2083 139.57 69.7033 140.275 70.6933 140.845C71.6833 141.415 72.6733 141.7 73.6633 141.7C75.4033 141.7 76.7683 141.52 77.7583 141.16L78.2533 140.98C78.9733 140.65 79.5733 140.485 80.0533 140.485C81.0133 140.485 81.8383 141.16 82.5283 142.51C82.9183 143.32 83.1133 144.01 83.1133 144.58C83.1133 147.25 79.9183 148.585 73.5283 148.585C71.3083 148.585 69.3283 148.21 67.5883 147.46C65.8783 146.68 64.5433 145.66 63.5833 144.4C61.6933 141.97 60.7483 139.255 60.7483 136.255C60.7483 132.475 61.9633 129.46 64.3933 127.21C66.8533 124.93 69.9133 123.79 73.5733 123.79C77.7433 123.79 80.8033 125.26 82.7533 128.2C83.7733 129.76 84.2833 131.47 84.2833 133.33ZM74.7883 134.635C75.9283 134.635 76.4983 134.155 76.4983 133.195C76.4983 132.505 76.2283 131.95 75.6883 131.53C75.1783 131.11 74.4283 130.9 73.4383 130.9C72.4783 130.9 71.5183 131.305 70.5583 132.115C69.5983 132.895 69.1183 133.735 69.1183 134.635H74.7883ZM94.9592 127.435C96.3692 125.305 98.0642 124.24 100.044 124.24C103.104 124.24 105.384 125.545 106.884 128.155C107.214 127.705 107.604 127.24 108.054 126.76C108.534 126.25 109.284 125.71 110.304 125.14C111.324 124.54 112.374 124.24 113.454 124.24C115.854 124.24 117.864 125.17 119.484 127.03C121.104 128.86 121.914 131.905 121.914 136.165V144.04C121.914 144.73 121.884 145.255 121.824 145.615C121.794 145.945 121.659 146.335 121.419 146.785C121.029 147.595 119.874 148 117.954 148C116.064 148 114.909 147.58 114.489 146.74C114.279 146.29 114.144 145.9 114.084 145.57C114.054 145.21 114.039 144.685 114.039 143.995V136.12C114.039 133.51 113.109 132.205 111.249 132.205C110.199 132.205 109.479 132.55 109.089 133.24C108.729 133.93 108.549 134.905 108.549 136.165V144.04C108.549 144.76 108.519 145.285 108.459 145.615C108.429 145.945 108.294 146.335 108.054 146.785C107.634 147.595 106.464 148 104.544 148C102.654 148 101.499 147.58 101.079 146.74C100.869 146.29 100.734 145.9 100.674 145.57C100.644 145.21 100.629 144.685 100.629 143.995V136.12C100.629 133.51 99.6992 132.205 97.8392 132.205C96.0392 132.205 95.1392 133.51 95.1392 136.12V144.085C95.1392 144.775 95.1092 145.3 95.0492 145.66C95.0192 145.99 94.8842 146.38 94.6442 146.83C94.1942 147.61 93.0242 148 91.1342 148C89.2442 148 88.0892 147.595 87.6692 146.785C87.4592 146.335 87.3242 145.945 87.2642 145.615C87.2342 145.285 87.2192 144.76 87.2192 144.04V128.2C87.2192 127.51 87.2342 127 87.2642 126.67C87.3242 126.31 87.4742 125.92 87.7142 125.5C88.1642 124.69 89.2292 124.285 90.9092 124.285C92.5892 124.285 93.6842 124.555 94.1942 125.095C94.7042 125.635 94.9592 126.415 94.9592 127.435ZM125.496 154.435V128.155C125.496 127.465 125.511 126.955 125.541 126.625C125.601 126.295 125.736 125.92 125.946 125.5C126.366 124.69 127.371 124.285 128.961 124.285C130.551 124.285 131.616 124.495 132.156 124.915C132.726 125.305 133.056 125.89 133.146 126.67C134.286 125.11 136.071 124.33 138.501 124.33C140.961 124.33 143.286 125.485 145.476 127.795C147.666 130.105 148.761 132.79 148.761 135.85C148.761 138.91 147.666 141.595 145.476 143.905C143.316 146.215 141.006 147.37 138.546 147.37C136.086 147.37 134.301 146.68 133.191 145.3V154.39C133.191 155.08 133.161 155.59 133.101 155.92C133.071 156.25 132.936 156.625 132.696 157.045C132.486 157.495 132.111 157.81 131.571 157.99C131.031 158.17 130.296 158.26 129.366 158.26C128.436 158.26 127.686 158.17 127.116 157.99C126.576 157.81 126.186 157.51 125.946 157.09C125.736 156.67 125.601 156.295 125.541 155.965C125.511 155.635 125.496 155.125 125.496 154.435ZM134.406 133.24C133.716 134.05 133.371 134.935 133.371 135.895C133.371 136.855 133.716 137.74 134.406 138.55C135.126 139.33 136.026 139.72 137.106 139.72C138.216 139.72 139.146 139.33 139.896 138.55C140.676 137.77 141.066 136.885 141.066 135.895C141.066 134.905 140.706 134.02 139.986 133.24C139.266 132.43 138.321 132.025 137.151 132.025C136.011 132.025 135.096 132.43 134.406 133.24ZM151.687 117.085C151.687 116.395 151.702 115.885 151.732 115.555C151.792 115.195 151.927 114.79 152.137 114.34C152.557 113.53 153.727 113.125 155.647 113.125C157.477 113.125 158.617 113.53 159.067 114.34C159.307 114.79 159.442 115.195 159.472 115.555C159.532 115.915 159.562 116.44 159.562 117.13V137.965C159.562 139.045 159.652 139.735 159.832 140.035C160.012 140.305 160.402 140.44 161.002 140.44C161.632 140.44 162.052 140.47 162.262 140.53C162.472 140.56 162.727 140.68 163.027 140.89C163.627 141.28 163.927 142.345 163.927 144.085C163.927 145.975 163.627 147.13 163.027 147.55C162.247 148.09 160.387 148.18 157.447 147.82C155.137 147.52 153.637 146.755 152.947 145.525C152.107 144.055 151.687 141.715 151.687 138.505V117.085ZM181.799 126.805C181.979 125.125 183.164 124.285 185.354 124.285C186.524 124.285 187.394 124.375 187.964 124.555C188.534 124.735 188.924 125.05 189.134 125.5C189.374 125.95 189.509 126.355 189.539 126.715C189.599 127.045 189.629 127.555 189.629 128.245V143.995C189.629 144.685 189.599 145.21 189.539 145.57C189.509 145.9 189.389 146.29 189.179 146.74C188.759 147.52 187.724 147.91 186.074 147.91C184.454 147.91 183.359 147.715 182.789 147.325C182.249 146.905 181.934 146.305 181.844 145.525C180.734 147.115 178.874 147.91 176.264 147.91C173.684 147.91 171.284 146.725 169.064 144.355C166.844 141.985 165.734 139.24 165.734 136.12C165.734 132.97 166.844 130.225 169.064 127.885C171.314 125.515 173.774 124.33 176.444 124.33C177.464 124.33 178.394 124.51 179.234 124.87C180.074 125.23 180.659 125.575 180.989 125.905C181.319 126.205 181.589 126.505 181.799 126.805ZM173.609 136.165C173.609 137.155 173.999 138.055 174.779 138.865C175.559 139.645 176.504 140.035 177.614 140.035C178.724 140.035 179.639 139.63 180.359 138.82C181.109 138.01 181.484 137.125 181.484 136.165C181.484 135.175 181.124 134.26 180.404 133.42C179.714 132.58 178.769 132.16 177.569 132.16C176.399 132.16 175.439 132.58 174.689 133.42C173.969 134.26 173.609 135.175 173.609 136.165ZM206.985 132.25L204.06 132.07V138.28C204.06 139.09 204.18 139.675 204.42 140.035C204.69 140.395 205.17 140.575 205.86 140.575C206.58 140.575 207.12 140.605 207.48 140.665C207.87 140.695 208.275 140.83 208.695 141.07C209.385 141.46 209.73 142.465 209.73 144.085C209.73 145.975 209.31 147.13 208.47 147.55C208.02 147.76 207.615 147.895 207.255 147.955C206.925 147.985 206.43 148 205.77 148C202.65 148 200.28 147.295 198.66 145.885C197.04 144.475 196.23 142.09 196.23 138.73V132.07C195.66 132.16 195.045 132.205 194.385 132.205C193.725 132.205 193.17 131.95 192.72 131.44C192.3 130.93 192.09 130.06 192.09 128.83C192.09 127.6 192.165 126.715 192.315 126.175C192.465 125.605 192.675 125.2 192.945 124.96C193.425 124.57 194.025 124.375 194.745 124.375L196.23 124.555V119.92C196.23 119.23 196.245 118.72 196.275 118.39C196.335 118.06 196.485 117.7 196.725 117.31C197.115 116.56 198.27 116.185 200.19 116.185C202.23 116.185 203.445 116.74 203.835 117.85C203.985 118.33 204.06 119.095 204.06 120.145V124.555C205.38 124.435 206.37 124.375 207.03 124.375C207.72 124.375 208.23 124.405 208.56 124.465C208.92 124.495 209.325 124.63 209.775 124.87C210.555 125.26 210.945 126.415 210.945 128.335C210.945 130.225 210.54 131.38 209.73 131.8C209.28 132.01 208.875 132.145 208.515 132.205C208.185 132.235 207.675 132.25 206.985 132.25ZM235.411 133.33C235.411 135.16 234.946 136.525 234.016 137.425C233.116 138.295 232.111 138.73 231.001 138.73H220.336C220.336 139.57 220.831 140.275 221.821 140.845C222.811 141.415 223.801 141.7 224.791 141.7C226.531 141.7 227.896 141.52 228.886 141.16L229.381 140.98C230.101 140.65 230.701 140.485 231.181 140.485C232.141 140.485 232.966 141.16 233.656 142.51C234.046 143.32 234.241 144.01 234.241 144.58C234.241 147.25 231.046 148.585 224.656 148.585C222.436 148.585 220.456 148.21 218.716 147.46C217.006 146.68 215.671 145.66 214.711 144.4C212.821 141.97 211.876 139.255 211.876 136.255C211.876 132.475 213.091 129.46 215.521 127.21C217.981 124.93 221.041 123.79 224.701 123.79C228.871 123.79 231.931 125.26 233.881 128.2C234.901 129.76 235.411 131.47 235.411 133.33ZM225.916 134.635C227.056 134.635 227.626 134.155 227.626 133.195C227.626 132.505 227.356 131.95 226.816 131.53C226.306 131.11 225.556 130.9 224.566 130.9C223.606 130.9 222.646 131.305 221.686 132.115C220.726 132.895 220.246 133.735 220.246 134.635H225.916ZM254.457 124.555C255.027 124.735 255.492 125.05 255.852 125.5C256.242 125.92 256.437 126.61 256.437 127.57C256.437 128.53 256.152 129.58 255.582 130.72C255.012 131.86 254.187 132.43 253.107 132.43C252.567 132.43 252.042 132.31 251.532 132.07C251.052 131.83 250.407 131.71 249.597 131.71C248.787 131.71 248.022 131.995 247.302 132.565C246.612 133.135 246.267 133.825 246.267 134.635V144.085C246.267 144.775 246.237 145.3 246.177 145.66C246.147 145.99 246.012 146.38 245.772 146.83C245.322 147.61 244.152 148 242.262 148C240.822 148 239.787 147.745 239.157 147.235C238.677 146.815 238.407 146.17 238.347 145.3C238.347 145 238.347 144.565 238.347 143.995V128.2C238.347 127.51 238.362 127 238.392 126.67C238.452 126.31 238.587 125.92 238.797 125.5C239.217 124.69 240.387 124.285 242.307 124.285C244.107 124.285 245.232 124.63 245.682 125.32C246.012 125.8 246.177 126.295 246.177 126.805C246.327 126.595 246.537 126.34 246.807 126.04C247.107 125.74 247.722 125.335 248.652 124.825C249.582 124.315 250.392 124.06 251.082 124.06C251.802 124.06 252.402 124.105 252.882 124.195C253.362 124.255 253.887 124.375 254.457 124.555Z" fill="white"/>
<path d="M54.4859 161.813C54.4859 135.313 54.4859 130.5 54.4859 102C54.4859 101 45.9176 107.239 37.4858 108.313C4.62327 112.5 17.1236 78.4996 34.6233 90.9998" stroke="white" stroke-width="7" stroke-linecap="round"/>
<path d="M54.6233 102C91.7607 110.307 186.261 104.654 201.261 98.4742C222.261 89.8218 209.261 62.5952 187.761 81.5951" stroke="white" stroke-width="7" stroke-linecap="round"/>
</svg>
