<svg width="42" height="42" viewBox="0 0 42 42" fill="none" xmlns="http://www.w3.org/2000/svg">
<path d="M12.2501 0.166687H29.7501C36.4167 0.166687 41.8334 5.58335 41.8334 12.25V29.75C41.8334 32.9547 40.5604 36.0282 38.2943 38.2942C36.0282 40.5603 32.9548 41.8334 29.7501 41.8334H12.2501C5.58342 41.8334 0.166748 36.4167 0.166748 29.75V12.25C0.166748 9.04532 1.43981 5.97188 3.70587 3.70581C5.97194 1.43975 9.04538 0.166687 12.2501 0.166687ZM11.8334 4.33335C9.84429 4.33335 7.93664 5.12353 6.53011 6.53005C5.12359 7.93658 4.33341 9.84423 4.33341 11.8334V30.1667C4.33341 34.3125 7.68758 37.6667 11.8334 37.6667H30.1667C32.1559 37.6667 34.0635 36.8765 35.4701 35.47C36.8766 34.0635 37.6667 32.1558 37.6667 30.1667V11.8334C37.6667 7.68752 34.3126 4.33335 30.1667 4.33335H11.8334ZM31.9376 7.45835C32.6282 7.45835 33.2906 7.73272 33.779 8.2211C34.2674 8.70947 34.5417 9.37185 34.5417 10.0625C34.5417 10.7532 34.2674 11.4156 33.779 11.9039C33.2906 12.3923 32.6282 12.6667 31.9376 12.6667C31.2469 12.6667 30.5845 12.3923 30.0962 11.9039C29.6078 11.4156 29.3334 10.7532 29.3334 10.0625C29.3334 9.37185 29.6078 8.70947 30.0962 8.2211C30.5845 7.73272 31.2469 7.45835 31.9376 7.45835ZM21.0001 10.5834C23.7628 10.5834 26.4123 11.6808 28.3658 13.6343C30.3193 15.5878 31.4167 18.2373 31.4167 21C31.4167 23.7627 30.3193 26.4122 28.3658 28.3657C26.4123 30.3192 23.7628 31.4167 21.0001 31.4167C18.2374 31.4167 15.5879 30.3192 13.6344 28.3657C11.6809 26.4122 10.5834 23.7627 10.5834 21C10.5834 18.2373 11.6809 15.5878 13.6344 13.6343C15.5879 11.6808 18.2374 10.5834 21.0001 10.5834ZM21.0001 14.75C19.3425 14.75 17.7528 15.4085 16.5807 16.5806C15.4086 17.7527 14.7501 19.3424 14.7501 21C14.7501 22.6576 15.4086 24.2473 16.5807 25.4194C17.7528 26.5915 19.3425 27.25 21.0001 27.25C22.6577 27.25 24.2474 26.5915 25.4195 25.4194C26.5916 24.2473 27.2501 22.6576 27.2501 21C27.2501 19.3424 26.5916 17.7527 25.4195 16.5806C24.2474 15.4085 22.6577 14.75 21.0001 14.75Z" fill="#A555EC"/>
</svg>
