<svg width="41" height="41" viewBox="0 0 41 41" fill="none" xmlns="http://www.w3.org/2000/svg">
<path d="M11.7667 0.166687H28.5667C34.9667 0.166687 40.1667 5.36669 40.1667 11.7667V28.5667C40.1667 31.6432 38.9446 34.5937 36.7692 36.7691C34.5938 38.9445 31.6433 40.1667 28.5667 40.1667H11.7667C5.36675 40.1667 0.166748 34.9667 0.166748 28.5667V11.7667C0.166748 8.69018 1.38889 5.73967 3.56431 3.56425C5.73973 1.38883 8.69024 0.166687 11.7667 0.166687ZM11.3667 4.16669C9.45719 4.16669 7.62584 4.92526 6.27558 6.27552C4.92532 7.62578 4.16675 9.45713 4.16675 11.3667V28.9667C4.16675 32.9467 7.38675 36.1667 11.3667 36.1667H28.9667C30.8763 36.1667 32.7077 35.4081 34.0579 34.0579C35.4082 32.7076 36.1667 30.8762 36.1667 28.9667V11.3667C36.1667 7.38669 32.9467 4.16669 28.9667 4.16669H11.3667ZM30.6667 7.16669C31.3298 7.16669 31.9657 7.43008 32.4345 7.89892C32.9034 8.36776 33.1667 9.00365 33.1667 9.66669C33.1667 10.3297 32.9034 10.9656 32.4345 11.4345C31.9657 11.9033 31.3298 12.1667 30.6667 12.1667C30.0037 12.1667 29.3678 11.9033 28.899 11.4345C28.4301 10.9656 28.1667 10.3297 28.1667 9.66669C28.1667 9.00365 28.4301 8.36776 28.899 7.89892C29.3678 7.43008 30.0037 7.16669 30.6667 7.16669ZM20.1667 10.1667C22.8189 10.1667 25.3625 11.2203 27.2378 13.0956C29.1132 14.971 30.1667 17.5145 30.1667 20.1667C30.1667 22.8189 29.1132 25.3624 27.2378 27.2378C25.3625 29.1131 22.8189 30.1667 20.1667 30.1667C17.5146 30.1667 14.971 29.1131 13.0957 27.2378C11.2203 25.3624 10.1667 22.8189 10.1667 20.1667C10.1667 17.5145 11.2203 14.971 13.0957 13.0956C14.971 11.2203 17.5146 10.1667 20.1667 10.1667ZM20.1667 14.1667C18.5754 14.1667 17.0493 14.7988 15.9241 15.924C14.7989 17.0493 14.1667 18.5754 14.1667 20.1667C14.1667 21.758 14.7989 23.2841 15.9241 24.4093C17.0493 25.5345 18.5754 26.1667 20.1667 26.1667C21.758 26.1667 23.2842 25.5345 24.4094 24.4093C25.5346 23.2841 26.1667 21.758 26.1667 20.1667C26.1667 18.5754 25.5346 17.0493 24.4094 15.924C23.2842 14.7988 21.758 14.1667 20.1667 14.1667Z" fill="#A555EC"/>
</svg>
