<svg width="66" height="66" viewBox="0 0 66 66" fill="none" xmlns="http://www.w3.org/2000/svg">
<g clip-path="url(#clip0_225_310)">
<path d="M0.672363 0.310303H65.7241V65.362H0.672363V0.310303Z" fill="#F7DF1E"/>
<path d="M17.7769 54.6723L22.7548 51.6596C23.7154 53.3623 24.589 54.8031 26.6846 54.8031C28.6934 54.8031 29.9601 54.0174 29.9601 50.961V30.1755H36.0732V51.0474C36.0732 57.379 32.3617 60.2611 26.9466 60.2611C22.0563 60.2611 19.2177 57.7284 17.7766 54.6718M39.3936 54.0172L44.3711 51.1353C45.6815 53.2752 47.3846 54.8471 50.3973 54.8471C52.9305 54.8471 54.5456 53.5806 54.5456 51.8339C54.5456 49.738 52.8862 48.9955 50.0916 47.7732L48.5636 47.1176C44.1531 45.2405 41.2275 42.8824 41.2275 37.9044C41.2275 33.3193 44.7207 29.8258 50.1792 29.8258C54.0656 29.8258 56.8602 31.1797 58.8687 34.7166L54.1088 37.7735C53.0606 35.8959 51.9257 35.1537 50.179 35.1537C48.3885 35.1537 47.2532 36.289 47.2532 37.7735C47.2532 39.6074 48.3885 40.3502 51.0084 41.4856L52.5366 42.1404C57.7331 44.3677 60.6587 46.6381 60.6587 51.7467C60.6587 57.2492 56.3358 60.2619 50.5281 60.2619C44.8516 60.2619 41.1835 57.5546 39.3934 54.0174" fill="black"/>
</g>
<defs>
<clipPath id="clip0_225_310">
<rect width="65.0517" height="65.0517" fill="white" transform="translate(0.672363 0.310303)"/>
</clipPath>
</defs>
</svg>
