<svg width="69" height="71" viewBox="0 0 69 71" fill="none" xmlns="http://www.w3.org/2000/svg">
<g clip-path="url(#clip0_225_317)">
<path d="M68.1517 16.5731C68.1768 16.6649 68.1898 16.7595 68.1898 16.8547V31.6469C68.1898 32.0334 67.9809 32.3904 67.6415 32.5826L55.0848 39.731V53.8988C55.0849 54.0884 55.0345 54.2746 54.9388 54.4389C54.8431 54.6032 54.7054 54.7396 54.5395 54.8347L28.3274 69.7537C28.2673 69.7872 28.202 69.8086 28.1364 69.8319C28.1118 69.8397 28.0888 69.8547 28.0629 69.8615C27.8796 69.9092 27.687 69.9092 27.5038 69.8615C27.4736 69.8536 27.4464 69.8371 27.4178 69.8264C27.3578 69.8047 27.2951 69.7859 27.238 69.7537L1.03118 54.8344C0.864645 54.7399 0.726269 54.6037 0.630009 54.4394C0.533749 54.2751 0.483009 54.0886 0.48291 53.8988L0.48291 9.52217C0.48291 9.4249 0.496663 9.3305 0.520995 9.23897C0.529194 9.20786 0.548237 9.17961 0.559345 9.1485C0.57971 9.09201 0.599017 9.03396 0.628903 8.9814C0.649268 8.94636 0.679154 8.91812 0.703751 8.88569C0.735224 8.84255 0.763788 8.79809 0.800551 8.76018C0.832024 8.72932 0.873018 8.70631 0.908459 8.67938C0.948131 8.64695 0.983306 8.61191 1.02827 8.58628H1.02959L14.1335 1.1269C14.2995 1.03248 14.4876 0.982788 14.679 0.982788C14.8705 0.982788 15.0586 1.03248 15.2245 1.1269L28.3284 8.58628H28.3311C28.3747 8.61348 28.4117 8.64695 28.4511 8.67807C28.4866 8.705 28.5263 8.72932 28.5575 8.75913C28.5958 8.79809 28.6231 8.84281 28.6556 8.88569C28.6789 8.91812 28.7103 8.94636 28.7294 8.9814C28.7606 9.03527 28.7783 9.09201 28.8003 9.14876C28.8111 9.17962 28.8301 9.20786 28.8383 9.24028C28.8635 9.33207 28.8764 9.42699 28.8767 9.52217V37.239L39.796 31.0225V16.8534C39.796 16.7593 39.8098 16.6633 39.8344 16.5731C39.8439 16.5407 39.8616 16.5124 39.8725 16.4816C39.8944 16.4248 39.9134 16.3665 39.9433 16.3142C39.9637 16.2792 39.9936 16.2509 40.0171 16.2185C40.0497 16.1754 40.0769 16.1309 40.115 16.093C40.1467 16.0621 40.1861 16.0391 40.2216 16.0122C40.2626 15.9798 40.298 15.9447 40.3416 15.9191H40.343L53.4482 8.45972C53.6141 8.36518 53.8022 8.31541 53.9937 8.31541C54.1852 8.31541 54.3733 8.36518 54.5392 8.45972L67.6431 15.9191C67.6894 15.946 67.7248 15.9798 67.7658 16.0106C67.7997 16.0378 67.8394 16.0621 67.8708 16.0917C67.9089 16.1309 67.9362 16.1754 67.9687 16.2185C67.9936 16.2509 68.0234 16.2792 68.0428 16.3142C68.074 16.3665 68.0917 16.4248 68.1134 16.4816C68.1258 16.5124 68.1435 16.5407 68.1517 16.5731ZM66.0055 31.0228V18.7221L61.4196 21.332L55.0846 24.9386V37.2393L66.0068 31.0228H66.0055ZM52.9015 53.2746V40.9653L46.6699 44.4842L28.8754 54.5256V66.9502L52.9015 53.2741V53.2746ZM2.66725 11.3892V53.2746L26.6908 66.9492V54.5269L14.1407 47.5042L14.1367 47.5016L14.1314 47.499C14.0891 47.4747 14.0534 47.4396 14.014 47.4101C13.9796 47.3829 13.9402 47.3614 13.9103 47.3316L13.9077 47.3277C13.8722 47.294 13.8476 47.2521 13.8177 47.2145C13.7902 47.1779 13.7577 47.147 13.7357 47.1094L13.7344 47.1052C13.7098 47.0649 13.6947 47.0163 13.677 46.9705C13.6593 46.93 13.6363 46.8921 13.6252 46.8492V46.8479C13.6117 46.7966 13.6091 46.7425 13.6035 46.6899C13.5982 46.6497 13.5871 46.6091 13.5871 46.5686V17.606L7.25307 13.9979L2.66725 11.3908V11.3892ZM14.6805 3.30828L3.7622 9.52217L14.6778 15.7358L25.5945 9.5206L14.6778 3.30828H14.6805ZM20.3583 42.0874L26.6921 38.4824V11.3892L22.1068 13.9995L15.7712 17.6057V44.6986L20.3583 42.0874ZM53.9936 10.6411L43.0769 16.8547L53.9936 23.0686L64.9089 16.8534L53.9936 10.6411ZM52.9013 24.9386L46.5662 21.332L41.9806 18.7221V31.0228L48.3144 34.628L52.9015 37.2393V24.9386H52.9013ZM27.7817 52.6585L43.7942 43.6202L51.7984 39.1037L40.8896 32.894L28.3298 40.0433L16.8825 46.5592L27.7817 52.6585Z" fill="#FF2D20"/>
</g>
<defs>
<clipPath id="clip0_225_317">
<rect width="67.7069" height="69.0345" fill="white" transform="translate(0.48291 0.982788)"/>
</clipPath>
</defs>
</svg>
