<svg width="239" height="77" viewBox="0 0 239 77" fill="none" xmlns="http://www.w3.org/2000/svg">
<path d="M56.44 41.22C56.44 42.44 56.13 43.35 55.51 43.95C54.91 44.53 54.24 44.82 53.5 44.82H46.39C46.39 45.38 46.72 45.85 47.38 46.23C48.04 46.61 48.7 46.8 49.36 46.8C50.52 46.8 51.43 46.68 52.09 46.44L52.42 46.32C52.9 46.1 53.3 45.99 53.62 45.99C54.26 45.99 54.81 46.44 55.27 47.34C55.53 47.88 55.66 48.34 55.66 48.72C55.66 50.5 53.53 51.39 49.27 51.39C47.79 51.39 46.47 51.14 45.31 50.64C44.17 50.12 43.28 49.44 42.64 48.6C41.38 46.98 40.75 45.17 40.75 43.17C40.75 40.65 41.56 38.64 43.18 37.14C44.82 35.62 46.86 34.86 49.3 34.86C52.08 34.86 54.12 35.84 55.42 37.8C56.1 38.84 56.44 39.98 56.44 41.22ZM50.11 42.09C50.87 42.09 51.25 41.77 51.25 41.13C51.25 40.67 51.07 40.3 50.71 40.02C50.37 39.74 49.87 39.6 49.21 39.6C48.57 39.6 47.93 39.87 47.29 40.41C46.65 40.93 46.33 41.49 46.33 42.09H50.11ZM63.5573 37.29C64.4973 35.87 65.6273 35.16 66.9473 35.16C68.9873 35.16 70.5073 36.03 71.5073 37.77C71.7273 37.47 71.9873 37.16 72.2873 36.84C72.6073 36.5 73.1073 36.14 73.7873 35.76C74.4673 35.36 75.1673 35.16 75.8873 35.16C77.4873 35.16 78.8273 35.78 79.9073 37.02C80.9873 38.24 81.5273 40.27 81.5273 43.11V48.36C81.5273 48.82 81.5073 49.17 81.4673 49.41C81.4473 49.63 81.3573 49.89 81.1973 50.19C80.9373 50.73 80.1673 51 78.8873 51C77.6273 51 76.8573 50.72 76.5773 50.16C76.4373 49.86 76.3473 49.6 76.3073 49.38C76.2873 49.14 76.2773 48.79 76.2773 48.33V43.08C76.2773 41.34 75.6573 40.47 74.4173 40.47C73.7173 40.47 73.2373 40.7 72.9773 41.16C72.7373 41.62 72.6173 42.27 72.6173 43.11V48.36C72.6173 48.84 72.5973 49.19 72.5573 49.41C72.5373 49.63 72.4473 49.89 72.2873 50.19C72.0073 50.73 71.2273 51 69.9473 51C68.6873 51 67.9173 50.72 67.6373 50.16C67.4973 49.86 67.4073 49.6 67.3673 49.38C67.3473 49.14 67.3373 48.79 67.3373 48.33V43.08C67.3373 41.34 66.7173 40.47 65.4773 40.47C64.2773 40.47 63.6773 41.34 63.6773 43.08V48.39C63.6773 48.85 63.6573 49.2 63.6173 49.44C63.5973 49.66 63.5073 49.92 63.3473 50.22C63.0473 50.74 62.2673 51 61.0073 51C59.7473 51 58.9773 50.73 58.6973 50.19C58.5573 49.89 58.4673 49.63 58.4273 49.41C58.4073 49.19 58.3973 48.84 58.3973 48.36V37.8C58.3973 37.34 58.4073 37 58.4273 36.78C58.4673 36.54 58.5673 36.28 58.7273 36C59.0273 35.46 59.7373 35.19 60.8573 35.19C61.9773 35.19 62.7073 35.37 63.0473 35.73C63.3873 36.09 63.5573 36.61 63.5573 37.29ZM83.9148 55.29V37.77C83.9148 37.31 83.9248 36.97 83.9448 36.75C83.9848 36.53 84.0748 36.28 84.2148 36C84.4948 35.46 85.1648 35.19 86.2248 35.19C87.2848 35.19 87.9948 35.33 88.3548 35.61C88.7348 35.87 88.9548 36.26 89.0148 36.78C89.7748 35.74 90.9648 35.22 92.5848 35.22C94.2248 35.22 95.7748 35.99 97.2348 37.53C98.6948 39.07 99.4248 40.86 99.4248 42.9C99.4248 44.94 98.6948 46.73 97.2348 48.27C95.7948 49.81 94.2548 50.58 92.6148 50.58C90.9748 50.58 89.7848 50.12 89.0448 49.2V55.26C89.0448 55.72 89.0248 56.06 88.9848 56.28C88.9648 56.5 88.8748 56.75 88.7148 57.03C88.5748 57.33 88.3248 57.54 87.9648 57.66C87.6048 57.78 87.1148 57.84 86.4948 57.84C85.8748 57.84 85.3748 57.78 84.9948 57.66C84.6348 57.54 84.3748 57.34 84.2148 57.06C84.0748 56.78 83.9848 56.53 83.9448 56.31C83.9248 56.09 83.9148 55.75 83.9148 55.29ZM89.8548 41.16C89.3948 41.7 89.1648 42.29 89.1648 42.93C89.1648 43.57 89.3948 44.16 89.8548 44.7C90.3348 45.22 90.9348 45.48 91.6548 45.48C92.3948 45.48 93.0148 45.22 93.5148 44.7C94.0348 44.18 94.2948 43.59 94.2948 42.93C94.2948 42.27 94.0548 41.68 93.5748 41.16C93.0948 40.62 92.4648 40.35 91.6848 40.35C90.9248 40.35 90.3148 40.62 89.8548 41.16ZM101.376 30.39C101.376 29.93 101.386 29.59 101.406 29.37C101.446 29.13 101.536 28.86 101.676 28.56C101.956 28.02 102.736 27.75 104.016 27.75C105.236 27.75 105.996 28.02 106.296 28.56C106.456 28.86 106.546 29.13 106.566 29.37C106.606 29.61 106.626 29.96 106.626 30.42V44.31C106.626 45.03 106.686 45.49 106.806 45.69C106.926 45.87 107.186 45.96 107.586 45.96C108.006 45.96 108.286 45.98 108.426 46.02C108.566 46.04 108.736 46.12 108.936 46.26C109.336 46.52 109.536 47.23 109.536 48.39C109.536 49.65 109.336 50.42 108.936 50.7C108.416 51.06 107.176 51.12 105.216 50.88C103.676 50.68 102.676 50.17 102.216 49.35C101.656 48.37 101.376 46.81 101.376 44.67V30.39ZM121.45 36.87C121.57 35.75 122.36 35.19 123.82 35.19C124.6 35.19 125.18 35.25 125.56 35.37C125.94 35.49 126.2 35.7 126.34 36C126.5 36.3 126.59 36.57 126.61 36.81C126.65 37.03 126.67 37.37 126.67 37.83V48.33C126.67 48.79 126.65 49.14 126.61 49.38C126.59 49.6 126.51 49.86 126.37 50.16C126.09 50.68 125.4 50.94 124.3 50.94C123.22 50.94 122.49 50.81 122.11 50.55C121.75 50.27 121.54 49.87 121.48 49.35C120.74 50.41 119.5 50.94 117.76 50.94C116.04 50.94 114.44 50.15 112.96 48.57C111.48 46.99 110.74 45.16 110.74 43.08C110.74 40.98 111.48 39.15 112.96 37.59C114.46 36.01 116.1 35.22 117.88 35.22C118.56 35.22 119.18 35.34 119.74 35.58C120.3 35.82 120.69 36.05 120.91 36.27C121.13 36.47 121.31 36.67 121.45 36.87ZM115.99 43.11C115.99 43.77 116.25 44.37 116.77 44.91C117.29 45.43 117.92 45.69 118.66 45.69C119.4 45.69 120.01 45.42 120.49 44.88C120.99 44.34 121.24 43.75 121.24 43.11C121.24 42.45 121 41.84 120.52 41.28C120.06 40.72 119.43 40.44 118.63 40.44C117.85 40.44 117.21 40.72 116.71 41.28C116.23 41.84 115.99 42.45 115.99 43.11ZM138.241 40.5L136.291 40.38V44.52C136.291 45.06 136.371 45.45 136.531 45.69C136.711 45.93 137.031 46.05 137.491 46.05C137.971 46.05 138.331 46.07 138.571 46.11C138.831 46.13 139.101 46.22 139.381 46.38C139.841 46.64 140.071 47.31 140.071 48.39C140.071 49.65 139.791 50.42 139.231 50.7C138.931 50.84 138.661 50.93 138.421 50.97C138.201 50.99 137.871 51 137.431 51C135.351 51 133.771 50.53 132.691 49.59C131.611 48.65 131.071 47.06 131.071 44.82V40.38C130.691 40.44 130.281 40.47 129.841 40.47C129.401 40.47 129.031 40.3 128.731 39.96C128.451 39.62 128.311 39.04 128.311 38.22C128.311 37.4 128.361 36.81 128.461 36.45C128.561 36.07 128.701 35.8 128.881 35.64C129.201 35.38 129.601 35.25 130.081 35.25L131.071 35.37V32.28C131.071 31.82 131.081 31.48 131.101 31.26C131.141 31.04 131.241 30.8 131.401 30.54C131.661 30.04 132.431 29.79 133.711 29.79C135.071 29.79 135.881 30.16 136.141 30.9C136.241 31.22 136.291 31.73 136.291 32.43V35.37C137.171 35.29 137.831 35.25 138.271 35.25C138.731 35.25 139.071 35.27 139.291 35.31C139.531 35.33 139.801 35.42 140.101 35.58C140.621 35.84 140.881 36.61 140.881 37.89C140.881 39.15 140.611 39.92 140.071 40.2C139.771 40.34 139.501 40.43 139.261 40.47C139.041 40.49 138.701 40.5 138.241 40.5ZM157.192 41.22C157.192 42.44 156.882 43.35 156.262 43.95C155.662 44.53 154.992 44.82 154.252 44.82H147.142C147.142 45.38 147.472 45.85 148.132 46.23C148.792 46.61 149.452 46.8 150.112 46.8C151.272 46.8 152.182 46.68 152.842 46.44L153.172 46.32C153.652 46.1 154.052 45.99 154.372 45.99C155.012 45.99 155.562 46.44 156.022 47.34C156.282 47.88 156.412 48.34 156.412 48.72C156.412 50.5 154.282 51.39 150.022 51.39C148.542 51.39 147.222 51.14 146.062 50.64C144.922 50.12 144.032 49.44 143.392 48.6C142.132 46.98 141.502 45.17 141.502 43.17C141.502 40.65 142.312 38.64 143.932 37.14C145.572 35.62 147.612 34.86 150.052 34.86C152.832 34.86 154.872 35.84 156.172 37.8C156.852 38.84 157.192 39.98 157.192 41.22ZM150.862 42.09C151.622 42.09 152.002 41.77 152.002 41.13C152.002 40.67 151.822 40.3 151.462 40.02C151.122 39.74 150.622 39.6 149.962 39.6C149.322 39.6 148.682 39.87 148.042 40.41C147.402 40.93 147.082 41.49 147.082 42.09H150.862ZM169.889 35.37C170.269 35.49 170.579 35.7 170.819 36C171.079 36.28 171.209 36.74 171.209 37.38C171.209 38.02 171.019 38.72 170.639 39.48C170.259 40.24 169.709 40.62 168.989 40.62C168.629 40.62 168.279 40.54 167.939 40.38C167.619 40.22 167.189 40.14 166.649 40.14C166.109 40.14 165.599 40.33 165.119 40.71C164.659 41.09 164.429 41.55 164.429 42.09V48.39C164.429 48.85 164.409 49.2 164.369 49.44C164.349 49.66 164.259 49.92 164.099 50.22C163.799 50.74 163.019 51 161.759 51C160.799 51 160.109 50.83 159.689 50.49C159.369 50.21 159.189 49.78 159.149 49.2C159.149 49 159.149 48.71 159.149 48.33V37.8C159.149 37.34 159.159 37 159.179 36.78C159.219 36.54 159.309 36.28 159.449 36C159.729 35.46 160.509 35.19 161.789 35.19C162.989 35.19 163.739 35.42 164.039 35.88C164.259 36.2 164.369 36.53 164.369 36.87C164.469 36.73 164.609 36.56 164.789 36.36C164.989 36.16 165.399 35.89 166.019 35.55C166.639 35.21 167.179 35.04 167.639 35.04C168.119 35.04 168.519 35.07 168.839 35.13C169.159 35.17 169.509 35.25 169.889 35.37Z" fill="url(#paint0_linear_279_257)"/>
<rect x="174" y="23" width="61" height="34" rx="6" fill="#1D77FF"/>
<path d="M201.174 32.962C202.157 33.314 202.648 33.7833 202.648 34.37C202.648 34.5607 202.56 34.92 202.384 35.448L198.16 47.658C198.131 47.7607 198.079 47.8853 198.006 48.032C197.933 48.1787 197.735 48.3767 197.412 48.626C197.104 48.8607 196.73 48.978 196.29 48.978C195.865 48.978 195.491 48.8607 195.168 48.626C194.86 48.3767 194.655 48.1347 194.552 47.9L191.978 40.31C190.35 45.1207 189.521 47.57 189.492 47.658C189.463 47.746 189.397 47.8707 189.294 48.032C189.191 48.1933 189.074 48.34 188.942 48.472C188.605 48.8093 188.201 48.978 187.732 48.978C187.263 48.978 186.874 48.868 186.566 48.648C186.273 48.428 186.075 48.208 185.972 47.988L185.818 47.658L181.572 35.448C181.411 34.964 181.33 34.6047 181.33 34.37C181.33 33.7833 181.821 33.3213 182.804 32.984C183.229 32.8373 183.611 32.764 183.948 32.764C184.3 32.764 184.564 32.8813 184.74 33.116C184.931 33.3507 185.099 33.71 185.246 34.194L187.666 41.542L190.064 34.304C190.269 33.688 190.643 33.2627 191.186 33.028C191.421 32.9253 191.721 32.874 192.088 32.874C192.469 32.874 192.821 32.9987 193.144 33.248C193.467 33.4827 193.672 33.7173 193.76 33.952L196.29 41.586L198.71 34.194C198.827 33.8567 198.923 33.6073 198.996 33.446C199.069 33.2847 199.201 33.1307 199.392 32.984C199.597 32.8227 199.847 32.742 200.14 32.742C200.433 32.742 200.778 32.8153 201.174 32.962ZM213.488 41.828C213.488 42.7227 213.26 43.39 212.806 43.83C212.366 44.2553 211.874 44.468 211.332 44.468H206.118C206.118 44.8787 206.36 45.2233 206.844 45.502C207.328 45.7807 207.812 45.92 208.296 45.92C209.146 45.92 209.814 45.832 210.298 45.656L210.54 45.568C210.892 45.4067 211.185 45.326 211.42 45.326C211.889 45.326 212.292 45.656 212.63 46.316C212.82 46.712 212.916 47.0493 212.916 47.328C212.916 48.6333 211.354 49.286 208.23 49.286C207.144 49.286 206.176 49.1027 205.326 48.736C204.49 48.3547 203.837 47.856 203.368 47.24C202.444 46.052 201.982 44.7247 201.982 43.258C201.982 41.41 202.576 39.936 203.764 38.836C204.966 37.7213 206.462 37.164 208.252 37.164C210.29 37.164 211.786 37.8827 212.74 39.32C213.238 40.0827 213.488 40.9187 213.488 41.828ZM208.846 42.466C209.403 42.466 209.682 42.2313 209.682 41.762C209.682 41.4247 209.55 41.1533 209.286 40.948C209.036 40.7427 208.67 40.64 208.186 40.64C207.716 40.64 207.247 40.838 206.778 41.234C206.308 41.6153 206.074 42.026 206.074 42.466H208.846ZM221.281 37.428C222.586 37.428 223.782 38.0073 224.867 39.166C225.967 40.3247 226.517 41.674 226.517 43.214C226.517 44.7393 225.974 46.0813 224.889 47.24C223.804 48.384 222.638 48.956 221.391 48.956C220.144 48.956 219.257 48.604 218.729 47.9C218.612 48.6187 217.981 48.978 216.837 48.978C215.913 48.978 215.348 48.78 215.143 48.384C215.04 48.164 214.974 47.9733 214.945 47.812C214.93 47.636 214.923 47.3793 214.923 47.042V33.908C214.923 33.5707 214.93 33.3213 214.945 33.16C214.974 32.984 215.04 32.7933 215.143 32.588C215.348 32.192 215.92 31.994 216.859 31.994C217.783 31.994 218.34 32.192 218.531 32.588C218.648 32.808 218.714 33.006 218.729 33.182C218.758 33.3433 218.773 33.5927 218.773 33.93V38.506C219.36 37.7873 220.196 37.428 221.281 37.428ZM219.345 44.534C219.712 44.93 220.166 45.128 220.709 45.128C221.252 45.128 221.714 44.93 222.095 44.534C222.476 44.138 222.667 43.698 222.667 43.214C222.667 42.73 222.491 42.29 222.139 41.894C221.787 41.4833 221.318 41.278 220.731 41.278C220.144 41.278 219.675 41.4833 219.323 41.894C218.986 42.3047 218.817 42.752 218.817 43.236C218.817 43.7053 218.993 44.138 219.345 44.534Z" fill="white"/>
<path d="M34.5001 74.0001C34.5001 47.5001 34.5001 48.0001 34.5001 19.4999C34.5001 18.5002 25.8518 18.9201 17.5 20.5001C-5 24.7568 1.00001 -2.49984 16.0001 7.50015" stroke="#A555EC" stroke-width="5" stroke-linecap="round"/>
<path d="M36 19.3792C71 26 126 22.4998 136 18.3796C152.152 11.7246 143 -5.00012 132 7.9999" stroke="#A555EC" stroke-width="5" stroke-linecap="round"/>
<defs>
<linearGradient id="paint0_linear_279_257" x1="67" y1="27.5" x2="170.5" y2="52" gradientUnits="userSpaceOnUse">
<stop stop-color="#A555EC"/>
<stop offset="0.441292" stop-color="#1D77FF"/>
</linearGradient>
</defs>
</svg>
