<svg width="25" height="23" viewBox="0 0 25 23" fill="none" xmlns="http://www.w3.org/2000/svg">
<path d="M12.4997 19.2685L6.44065 22.7846C6.17298 22.9487 5.89314 23.019 5.60114 22.9956C5.30914 22.9722 5.05363 22.8784 4.83463 22.7143C4.61563 22.5502 4.44529 22.3454 4.32362 22.0997C4.20196 21.8531 4.17762 21.5774 4.25062 21.2727L5.85664 14.6272L0.491077 10.1617C0.24774 9.9507 0.0958984 9.71019 0.035551 9.44015C-0.0257697 9.17105 -0.00776294 8.90757 0.0895716 8.64972C0.186906 8.39187 0.332908 8.1809 0.527577 8.01682C0.722246 7.85273 0.989916 7.74725 1.33059 7.70036L8.41167 7.10262L11.1492 0.843876C11.2709 0.562584 11.4597 0.351615 11.7157 0.210969C11.9707 0.0703231 12.2321 0 12.4997 0C12.7674 0 13.0292 0.0703231 13.2852 0.210969C13.5402 0.351615 13.7286 0.562584 13.8502 0.843876L16.5878 7.10262L23.6689 7.70036C24.0095 7.74725 24.2772 7.85273 24.4719 8.01682C24.6665 8.1809 24.8125 8.39187 24.9099 8.64972C25.0072 8.90757 25.0257 9.17105 24.9654 9.44015C24.904 9.71019 24.7517 9.9507 24.5084 10.1617L19.1428 14.6272L20.7488 21.2727C20.8218 21.5774 20.7975 21.8531 20.6758 22.0997C20.5542 22.3454 20.3838 22.5502 20.1648 22.7143C19.9458 22.8784 19.6903 22.9722 19.3983 22.9956C19.1063 23.019 18.8265 22.9487 18.5588 22.7846L12.4997 19.2685Z" fill="#E6E637"/>
</svg>
