<svg width="25" height="23" viewBox="0 0 25 23" fill="none" xmlns="http://www.w3.org/2000/svg">
<path d="M12.4994 4.99293V15.9633L17.0986 18.6707L15.894 13.6075L19.9457 10.232L14.6165 9.77489L12.4994 4.99293ZM12.4994 19.2685L6.44014 22.7846C6.17246 22.9487 5.89261 23.019 5.6006 22.9956C5.30859 22.9722 5.05308 22.8784 4.83407 22.7143C4.61506 22.5502 4.44472 22.3449 4.32305 22.0983C4.20138 21.8517 4.17704 21.5765 4.25005 21.2727L5.85611 14.6272L0.490398 10.1617C0.247055 9.9507 0.0952091 9.71019 0.0348601 9.44015C-0.025489 9.17011 -0.00748172 8.90664 0.0888821 8.64972C0.186219 8.39187 0.332225 8.1809 0.5269 8.01682C0.721574 7.85273 0.989251 7.74725 1.32993 7.70036L8.41121 7.10262L11.1488 0.843876C11.2705 0.562584 11.4593 0.351615 11.7153 0.210969C11.9713 0.0703231 12.2327 0 12.4994 0C12.7671 0 13.0284 0.0703231 13.2834 0.210969C13.5385 0.351615 13.7273 0.562584 13.8499 0.843876L16.5875 7.10262L23.6688 7.70036C24.0095 7.74725 24.2772 7.85273 24.4719 8.01682C24.6665 8.1809 24.8125 8.39187 24.9099 8.64972C25.0072 8.90758 25.0257 9.17152 24.9654 9.44156C24.905 9.7116 24.7527 9.95164 24.5084 10.1617L19.1426 14.6272L20.7487 21.2727C20.8217 21.5774 20.7974 21.8531 20.6757 22.0997C20.554 22.3463 20.3837 22.5512 20.1647 22.7143C19.9457 22.8784 19.6902 22.9722 19.3982 22.9956C19.1061 23.019 18.8263 22.9487 18.5586 22.7846L12.4994 19.2685Z" fill="#E5E537"/>
</svg>
