<svg width="94" height="57" viewBox="0 0 94 57" fill="none" xmlns="http://www.w3.org/2000/svg">
<g clip-path="url(#clip0_225_315)">
<path d="M46.8449 0.620728C34.4542 0.620728 26.7097 6.80016 23.6122 19.1587C28.2587 12.9792 33.6796 10.662 39.8751 12.2069C43.4097 13.0882 45.9363 15.6462 48.7329 18.4772C53.2887 23.0896 58.5611 28.4276 70.0777 28.4276C82.4684 28.4276 90.2129 22.2482 93.3104 9.88969C88.6639 16.0691 83.243 18.3864 77.0475 16.8414C73.5129 15.9601 70.9863 13.4021 68.1896 10.5711C63.6338 5.95871 58.3615 0.620728 46.8449 0.620728ZM23.6122 28.4276C11.2215 28.4276 3.47697 34.6071 0.379395 46.9656C5.02595 40.7861 10.4468 38.4689 16.6423 40.0138C20.177 40.8951 22.7035 43.4531 25.5002 46.2841C30.056 50.8965 35.3284 56.2345 46.8449 56.2345C59.2356 56.2345 66.9801 50.0551 70.0777 37.6966C65.4311 43.876 60.0103 46.1933 53.8147 44.6483C50.2801 43.767 47.7535 41.209 44.9569 38.378C40.4011 33.7656 35.1287 28.4276 23.6122 28.4276Z" fill="url(#paint0_linear_225_315)"/>
</g>
<defs>
<linearGradient id="paint0_linear_225_315" x1="-2.20223" y1="18.4171" x2="77.9546" y2="64.7545" gradientUnits="userSpaceOnUse">
<stop stop-color="#2298BD"/>
<stop offset="1" stop-color="#0ED7B5"/>
</linearGradient>
<clipPath id="clip0_225_315">
<rect width="92.931" height="55.7586" fill="white" transform="translate(0.379395 0.620728)"/>
</clipPath>
</defs>
</svg>
