<svg width="41" height="42" viewBox="0 0 41 42" fill="none" xmlns="http://www.w3.org/2000/svg">
<path d="M34.698 6.37202C32.8551 4.4768 30.6601 2.97414 28.2409 1.95167C25.8218 0.929202 23.2268 0.407396 20.6075 0.416687C9.63263 0.416687 0.687904 9.52364 0.687904 20.6976C0.687904 24.2789 1.61253 27.758 3.34117 30.8278L0.5271 41.3468L11.0799 38.5226C13.9944 40.1394 17.2708 40.9989 20.6075 40.9989C31.5824 40.9989 40.5271 31.8919 40.5271 20.718C40.5271 15.2948 38.4567 10.199 34.698 6.37202ZM20.6075 37.5608C17.6326 37.5608 14.7181 36.7422 12.1653 35.2073L11.5623 34.8389L5.29092 36.517L6.95926 30.2957L6.55725 29.6613C4.90448 26.9741 4.02688 23.8681 4.02459 20.6976C4.02459 11.4064 11.4618 3.83435 20.5874 3.83435C25.0095 3.83435 29.1703 5.59435 32.2859 8.7869C33.8286 10.3504 35.0511 12.21 35.8827 14.2581C36.7142 16.3061 37.1382 18.5019 37.1301 20.718C37.1703 30.0092 29.7331 37.5608 20.6075 37.5608ZM29.6929 24.9543C29.1904 24.7087 26.7382 23.4808 26.2959 23.2966C25.8336 23.1329 25.512 23.051 25.1703 23.5422C24.8286 24.0538 23.8839 25.1999 23.6025 25.5273C23.3211 25.8752 23.0196 25.9161 22.517 25.6501C22.0145 25.4045 20.4065 24.852 18.517 23.1329C17.0296 21.7822 16.0447 20.1245 15.7432 19.6129C15.4618 19.1013 15.703 18.8352 15.9643 18.5692C16.1854 18.3441 16.4668 17.9757 16.708 17.6892C16.9492 17.4027 17.0497 17.1776 17.2105 16.8501C17.3713 16.5022 17.2909 16.2157 17.1703 15.9701C17.0497 15.7246 16.0447 13.2278 15.6427 12.2046C15.2407 11.2222 14.8186 11.345 14.517 11.3246H13.5522C13.2105 11.3246 12.6879 11.4474 12.2256 11.959C11.7834 12.4706 10.4969 13.6985 10.4969 16.1952C10.4969 18.692 12.2859 21.1069 12.5271 21.4343C12.7683 21.7822 16.0447 26.8985 21.0296 29.0882C22.2155 29.6203 23.1402 29.9273 23.8638 30.1524C25.0497 30.5413 26.1351 30.4799 26.9995 30.3571C27.9643 30.2138 29.9542 29.1292 30.3562 27.9422C30.7784 26.7552 30.7784 25.7524 30.6377 25.5273C30.4969 25.3022 30.1954 25.1999 29.6929 24.9543Z" fill="#A555EC"/>
</svg>
