<svg width="53" height="53" viewBox="0 0 53 53" fill="none" xmlns="http://www.w3.org/2000/svg">
<path d="M42.0688 10.8429C40.0442 8.79787 37.6326 7.17638 34.9748 6.07306C32.317 4.96974 29.4661 4.40667 26.5883 4.4167C14.5308 4.4167 4.70377 14.2438 4.70377 26.3013C4.70377 30.1659 5.7196 33.92 7.61877 37.2325L4.5271 48.5834L16.1208 45.5359C19.3229 47.2804 22.9225 48.2079 26.5883 48.2079C38.6458 48.2079 48.4729 38.3809 48.4729 26.3234C48.4729 20.4713 46.1983 14.9725 42.0688 10.8429ZM26.5883 44.4979C23.32 44.4979 20.1179 43.6146 17.3133 41.9584L16.6508 41.5609L9.76085 43.3717L11.5938 36.6584L11.1521 35.9738C9.33629 33.0742 8.37212 29.7225 8.3696 26.3013C8.3696 16.2754 16.5404 8.10461 26.5663 8.10461C31.4246 8.10461 35.9958 10.0038 39.4188 13.4488C41.1136 15.1359 42.4568 17.1426 43.3703 19.3526C44.2839 21.5626 44.7498 23.932 44.7408 26.3234C44.785 36.3492 36.6142 44.4979 26.5883 44.4979ZM36.57 30.8946C36.0179 30.6296 33.3238 29.3046 32.8379 29.1059C32.33 28.9292 31.9767 28.8409 31.6013 29.3709C31.2258 29.9229 30.1879 31.1596 29.8788 31.5129C29.5696 31.8884 29.2383 31.9325 28.6863 31.6454C28.1342 31.3804 26.3675 30.7842 24.2917 28.9292C22.6575 27.4717 21.5754 25.6829 21.2442 25.1309C20.935 24.5788 21.2 24.2917 21.4871 24.0046C21.73 23.7617 22.0392 23.3642 22.3042 23.055C22.5692 22.7459 22.6796 22.5029 22.8563 22.1496C23.0329 21.7742 22.9446 21.465 22.8121 21.2C22.6796 20.935 21.5754 18.2409 21.1338 17.1367C20.6921 16.0767 20.2283 16.2092 19.8971 16.1871H18.8371C18.4617 16.1871 17.8875 16.3196 17.3796 16.8717C16.8938 17.4238 15.4804 18.7488 15.4804 21.4429C15.4804 24.1371 17.4458 26.7429 17.7108 27.0963C17.9759 27.4717 21.5754 32.9925 27.0521 35.3554C28.355 35.9296 29.3708 36.2609 30.1658 36.5038C31.4688 36.9234 32.6613 36.8571 33.6108 36.7246C34.6708 36.57 36.8571 35.3996 37.2988 34.1188C37.7625 32.8379 37.7625 31.7559 37.6079 31.5129C37.4534 31.27 37.1221 31.1596 36.57 30.8946Z" fill="#A555EC"/>
</svg>
