<svg width="48" height="38" viewBox="0 0 48 38" fill="none" xmlns="http://www.w3.org/2000/svg">
<path d="M24.0001 0.333313C25.9951 0.333313 28.0414 0.384647 30.0247 0.468647L32.3674 0.580646L34.6098 0.713647L36.7098 0.85598L38.6278 1.00531C40.7092 1.16463 42.6678 2.05286 44.159 3.51374C45.6502 4.97462 46.5784 6.91457 46.7804 8.99231L46.8737 9.98398L47.0488 12.1073C47.2121 14.3076 47.3334 16.7063 47.3334 19C47.3334 21.2936 47.2121 23.6923 47.0488 25.8926L46.8737 28.016C46.8434 28.3566 46.8131 28.6856 46.7804 29.0076C46.5783 31.0858 45.6498 33.026 44.1581 34.4869C42.6664 35.9479 40.7073 36.8359 38.6254 36.9946L36.7121 37.1416L34.6121 37.2863L32.3674 37.4193L30.0247 37.5313C28.0177 37.6185 26.009 37.6637 24.0001 37.6666C21.9911 37.6637 19.9825 37.6185 17.9754 37.5313L15.6327 37.4193L13.3904 37.2863L11.2904 37.1416L9.37242 36.9946C7.29097 36.8353 5.33237 35.9471 3.84118 34.4862C2.35 33.0253 1.42175 31.0854 1.21975 29.0076L1.12641 28.016L0.951415 25.8926C0.773002 23.5993 0.678051 21.3002 0.666748 19C0.666748 16.7063 0.788081 14.3076 0.951415 12.1073L1.12641 9.98398C1.15675 9.64331 1.18708 9.31431 1.21975 8.99231C1.42168 6.91494 2.34959 4.97528 3.8403 3.51445C5.331 2.05361 7.28905 1.16515 9.37008 1.00531L11.2857 0.85598L13.3857 0.713647L15.6304 0.580646L17.9731 0.468647C19.9809 0.381457 21.9904 0.336335 24.0001 0.333313ZM24.0001 4.99998C22.0751 4.99998 20.0941 5.05131 18.1667 5.13065L15.8847 5.24031L13.6937 5.36865L11.6357 5.50865L9.75042 5.65565C8.75952 5.72595 7.82552 6.14482 7.11397 6.83801C6.40241 7.5312 5.95927 8.45393 5.86308 9.44265C5.59008 12.2636 5.33342 15.7753 5.33342 19C5.33342 22.2246 5.59008 25.7363 5.86308 28.5573C6.06142 30.592 7.67608 32.174 9.75042 32.3443L11.6357 32.489L13.6937 32.629L15.8847 32.7596L18.1667 32.8693C20.0941 32.9486 22.0751 33 24.0001 33C25.9251 33 27.9061 32.9486 29.8334 32.8693L32.1154 32.7596L34.3064 32.6313L36.3644 32.4913L38.2498 32.3443C39.2406 32.274 40.1746 31.8551 40.8862 31.1619C41.5978 30.4688 42.0409 29.546 42.1371 28.5573C42.4101 25.7363 42.6668 22.2246 42.6668 19C42.6668 15.7753 42.4101 12.2636 42.1371 9.44265C42.0409 8.45393 41.5978 7.5312 40.8862 6.83801C40.1746 6.14482 39.2406 5.72595 38.2498 5.65565L36.3644 5.51098L34.3064 5.37098L32.1154 5.24031L29.8334 5.13065C27.8901 5.04703 25.9452 5.00347 24.0001 4.99998ZM19.3334 13.3416C19.3333 13.1136 19.3888 12.889 19.4953 12.6873C19.6017 12.4856 19.7558 12.313 19.9442 12.1844C20.1325 12.0558 20.3494 11.9752 20.5761 11.9496C20.8027 11.924 21.0321 11.9541 21.2444 12.0373L21.4334 12.1306L31.2334 17.7866C31.4286 17.8992 31.5937 18.0573 31.7147 18.2473C31.8357 18.4374 31.909 18.6538 31.9285 18.8783C31.948 19.1028 31.913 19.3286 31.8265 19.5366C31.74 19.7447 31.6046 19.9288 31.4318 20.0733L31.2334 20.2133L21.4334 25.8716C21.2359 25.986 21.0135 26.0504 20.7854 26.0591C20.5574 26.0678 20.3307 26.0207 20.125 25.9218C19.9194 25.8228 19.741 25.6752 19.6055 25.4915C19.4699 25.3079 19.3814 25.094 19.3474 24.8683L19.3334 24.6583V13.3416Z" fill="#A555EC"/>
</svg>
