<svg width="41" height="33" viewBox="0 0 41 33" fill="none" xmlns="http://www.w3.org/2000/svg">
<path d="M20.6667 0.333313C22.3767 0.333313 24.1307 0.377552 25.8307 0.449944L27.8387 0.546465L29.7607 0.661085L31.5607 0.783748L33.2047 0.912444C34.9888 1.04974 36.6676 1.81522 37.9458 3.07421C39.224 4.3332 40.0196 6.00505 40.1927 7.79565L40.2727 8.65027L40.4227 10.4802C40.5627 12.3764 40.6667 14.4436 40.6667 16.4203C40.6667 18.397 40.5627 20.4641 40.4227 22.3604L40.2727 24.1903C40.2467 24.4839 40.2207 24.7674 40.1927 25.0449C40.0195 26.8358 39.2236 28.5079 37.945 29.7669C36.6665 31.026 34.9872 31.7912 33.2027 31.9281L31.5627 32.0548L29.7627 32.1795L27.8387 32.2941L25.8307 32.3906C24.1104 32.4658 22.3887 32.5046 20.6667 32.5072C18.9448 32.5046 17.2231 32.4658 15.5027 32.3906L13.4947 32.2941L11.5727 32.1795L9.77275 32.0548L8.12875 31.9281C6.34465 31.7908 4.66585 31.0253 3.38769 29.7663C2.10954 28.5073 1.3139 26.8355 1.14075 25.0449L1.06075 24.1903L0.910748 22.3604C0.757823 20.384 0.676436 18.4026 0.666748 16.4203C0.666748 14.4436 0.770748 12.3764 0.910748 10.4802L1.06075 8.65027C1.08675 8.35668 1.11275 8.07315 1.14075 7.79565C1.31383 6.00537 2.10918 4.33377 3.38693 3.07482C4.66468 1.81587 6.34301 1.05019 8.12675 0.912444L9.76875 0.783748L11.5687 0.661085L13.4927 0.546465L15.5007 0.449944C17.2217 0.374803 18.9441 0.335918 20.6667 0.333313ZM20.6667 4.35505C19.0167 4.35505 17.3187 4.39929 15.6667 4.46766L13.7107 4.56217L11.8327 4.67277L10.0687 4.79342L8.45275 4.92011C7.60341 4.9807 6.80284 5.34168 6.19293 5.93907C5.58303 6.53646 5.20319 7.33167 5.12075 8.18375C4.88675 10.6149 4.66675 13.6412 4.66675 16.4203C4.66675 19.1993 4.88675 22.2257 5.12075 24.6568C5.29075 26.4103 6.67475 27.7736 8.45275 27.9204L10.0687 28.0451L11.8327 28.1658L13.7107 28.2784L15.6667 28.3729C17.3187 28.4412 19.0167 28.4855 20.6667 28.4855C22.3167 28.4855 24.0147 28.4412 25.6667 28.3729L27.6227 28.2784L29.5007 28.1678L31.2647 28.0471L32.8807 27.9204C33.7301 27.8598 34.5307 27.4989 35.1406 26.9015C35.7505 26.3041 36.1303 25.5089 36.2127 24.6568C36.4467 22.2257 36.6667 19.1993 36.6667 16.4203C36.6667 13.6412 36.4467 10.6149 36.2127 8.18375C36.1303 7.33167 35.7505 6.53646 35.1406 5.93907C34.5307 5.34168 33.7301 4.9807 32.8807 4.92011L31.2647 4.79543L29.5007 4.67478L27.6227 4.56217L25.6667 4.46766C24.001 4.3956 22.334 4.35806 20.6667 4.35505ZM16.6667 11.5439C16.6666 11.3474 16.7142 11.1538 16.8055 10.98C16.8967 10.8062 17.0288 10.6574 17.1903 10.5466C17.3517 10.4358 17.5376 10.3663 17.7319 10.3442C17.9261 10.3221 18.1228 10.3481 18.3047 10.4198L18.4667 10.5003L26.8667 15.3746C27.034 15.4717 27.1755 15.6079 27.2792 15.7716C27.383 15.9354 27.4458 16.122 27.4625 16.3154C27.4792 16.5088 27.4492 16.7035 27.3751 16.8828C27.301 17.0621 27.1849 17.2207 27.0367 17.3453L26.8667 17.4659L18.4667 22.3423C18.2975 22.4408 18.1068 22.4963 17.9113 22.5038C17.7159 22.5113 17.5215 22.4707 17.3453 22.3855C17.169 22.3002 17.0161 22.1729 16.8999 22.0147C16.7838 21.8565 16.7078 21.6721 16.6787 21.4776L16.6667 21.2966V11.5439Z" fill="#A555EC"/>
</svg>
